<?xml version="1.0" encoding="iso-8859-1"?>
<!-- Generator: Adobe Illustrator 19.0.0, SVG Export Plug-In . SVG Version: 6.00 Build 0)  -->
<svg version="1.1" id="Capa_1" xmlns="http://www.w3.org/2000/svg" xmlns:xlink="http://www.w3.org/1999/xlink" x="0px" y="0px"
	 viewBox="0 0 512.006 512.006" style="enable-background:new 0 0 512.006 512.006;" xml:space="preserve">
<path style="fill:#DDDDDD;" d="M367.36,436.167h67.444c21.695,0,39.283-17.587,39.283-39.283V39.283
	C474.087,17.588,456.5,0,434.804,0H77.203C55.508,0,37.92,17.587,37.92,39.283v357.601c0,21.695,17.587,39.283,39.283,39.283h67.444
	"/>
<path style="fill:#C2C4C2;" d="M63.216,396.884V39.283C63.216,17.587,80.805,0,102.499,0H77.202
	C55.506,0,37.919,17.587,37.919,39.283v357.601c0,21.696,17.587,39.283,39.283,39.283h25.297
	C80.805,436.167,63.216,418.58,63.216,396.884z"/>
<path style="fill:#F9C662;" d="M366.614,389.358c13.386,0,24.231-10.844,24.231-24.231v-53.775
	c0-13.386-10.844-24.231-24.231-24.231H145.391c-13.375,0-24.231,10.844-24.231,24.231v53.775c0,13.386,10.856,24.231,24.231,24.231
	"/>
<path style="fill:#E0A33F;" d="M358.611,346.197H153.398c-4.395,0-7.958-3.563-7.958-7.958s3.563-7.958,7.958-7.958h205.214
	c4.395,0,7.958,3.563,7.958,7.958S363.007,346.197,358.611,346.197z"/>
<g>
	<path style="fill:#4A5660;" d="M403.976,196.152c-4.395,0-7.958-3.563-7.958-7.958v-73.046l-24.485,46.172
		c-1.381,2.603-4.085,4.23-7.03,4.23c-2.945,0-5.651-1.627-7.031-4.229l-24.495-46.18v73.054c0,4.395-3.563,7.958-7.958,7.958
		s-7.958-3.563-7.958-7.958V83.152c0-3.656,2.49-6.84,6.037-7.723c3.547-0.881,7.24,0.765,8.953,3.994l32.453,61.182l32.444-61.181
		c1.713-3.229,5.409-4.874,8.953-3.995c3.547,0.883,6.037,4.067,6.037,7.723v105.041
		C411.935,192.589,408.372,196.152,403.976,196.152z"/>
	<path style="fill:#4A5660;" d="M187.614,196.155c-3.213,0-6.238-1.959-7.444-5.141l-32.348-85.399l-32.348,85.399
		c-1.557,4.11-6.149,6.181-10.261,4.623c-4.111-1.557-6.18-6.151-4.623-10.261l39.79-105.047c1.171-3.093,4.134-5.139,7.443-5.139
		s6.271,2.046,7.443,5.139l39.79,105.047c1.557,4.111-0.513,8.704-4.623,10.261C189.504,195.989,188.551,196.155,187.614,196.155z"
		/>
	<path style="fill:#4A5660;" d="M171.508,157.139h-48.697c-4.395,0-7.958-3.563-7.958-7.958s3.563-7.958,7.958-7.958h48.697
		c4.395,0,7.958,3.563,7.958,7.958S175.903,157.139,171.508,157.139z"/>
	<path style="fill:#4A5660;" d="M246.506,196.153c-4.395,0-7.958-3.563-7.958-7.958V83.148c0-4.395,3.563-7.958,7.958-7.958
		s7.958,3.563,7.958,7.958v105.047C254.464,192.591,250.901,196.153,246.506,196.153z"/>
	<path style="fill:#4A5660;" d="M283.112,91.107h-73.215c-4.395,0-7.958-3.563-7.958-7.958s3.563-7.958,7.958-7.958h73.215
		c4.395,0,7.958,3.563,7.958,7.958S287.508,91.107,283.112,91.107z"/>
</g>
<path style="fill:#467EB7;" d="M340.829,330.28v161.058c0,11.418-9.242,20.66-20.65,20.66H191.836
	c-11.418,0-20.66-9.242-20.66-20.66V330.28H340.829z"/>
<rect x="171.174" y="330.277" style="fill:#3570A0;" width="169.654" height="38.042"/>
<rect x="210.818" y="330.288" style="fill:#525D66;" width="31.833" height="181.719"/>
<rect x="210.818" y="330.288" style="fill:#4A5660;" width="31.833" height="38.038"/>
<g>
</g>
<g>
</g>
<g>
</g>
<g>
</g>
<g>
</g>
<g>
</g>
<g>
</g>
<g>
</g>
<g>
</g>
<g>
</g>
<g>
</g>
<g>
</g>
<g>
</g>
<g>
</g>
<g>
</g>
</svg>
