<?xml version="1.0" encoding="iso-8859-1"?>
<!-- Generator: Adobe Illustrator 19.0.0, SVG Export Plug-In . SVG Version: 6.00 Build 0)  -->
<svg version="1.1" id="Capa_1" xmlns="http://www.w3.org/2000/svg" xmlns:xlink="http://www.w3.org/1999/xlink" x="0px" y="0px"
	 viewBox="0 0 512 512" style="enable-background:new 0 0 512 512;" xml:space="preserve">
<path style="fill:#DDDDDD;" d="M512,185.667v220.379c0,16.384-13.281,29.654-29.654,29.654H29.644
	C13.27,435.701,0,422.431,0,406.047V185.667c0-16.384,13.27-29.654,29.644-29.654h452.702C498.719,156.014,512,169.283,512,185.667z
	"/>
<path style="fill:#C7C8C9;" d="M512,185.667v220.379c0,16.384-13.281,29.654-29.654,29.654H362.58V156.014h119.766
	C498.719,156.014,512,169.283,512,185.667z"/>
<path style="fill:#FFFFFF;" d="M259.176,380.282c-1.043,0-2.102-0.209-3.119-0.652c-3.97-1.725-5.789-6.341-4.065-10.311
	l11.577-26.639c1.725-3.969,6.341-5.79,10.311-4.064c3.97,1.725,5.789,6.341,4.065,10.311l-11.577,26.639
	C265.084,378.52,262.204,380.282,259.176,380.282z"/>
<path style="fill:#F4B74A;" d="M434.577,144.005c2.836-6.529,2.789-13.19-0.138-19.265c-7.718-16.017-33.023-23.229-35.883-23.999
	c-3.369-0.905-6.832,1.089-7.737,4.456c-0.906,3.367,1.089,6.832,4.455,7.737c5.801,1.561,23.357,8.086,27.79,17.286
	c1.34,2.78,1.318,5.561-0.068,8.751c-2.485,5.719-7.073,12.219-11.931,19.101c-12.285,17.406-27.552,39.045-22.59,66.661
	c0.15,4.411,1.623,8.816,4.513,12.572c4.305,5.595,10.804,8.532,17.371,8.532c4.66,0,9.354-1.477,13.324-4.532
	c4.634-3.565,7.602-8.722,8.357-14.519c0.755-5.797-0.792-11.542-4.357-16.176c-6.329-8.224-17.393-10.698-26.454-6.552
	c3.03-14.433,11.973-27.118,20.152-38.706C426.625,157.928,431.575,150.913,434.577,144.005z"/>
<circle style="fill:#FFD488;" cx="420.049" cy="220.056" r="9.404"/>
<path style="fill:#5997C9;" d="M404.411,108.365c2.353-28.162-32.25-43.201-51.234-22.268
	c-22.179,24.456-44.89,60.436-63.324,102.851c-31.529,72.543-40.761,141.389-25.493,171.581
	c32.49-9.434,76.527-63.154,108.056-135.697C390.849,182.416,401.662,141.265,404.411,108.365z"/>
<path style="fill:#467EB7;" d="M386.704,78.78c-2.999-1.16-8.589,3.709-15.015,15.36c-15.151,27.512-33.562,65.358-51.994,107.771
	c-31.535,72.547-53.342,135.931-55.338,158.615c-15.266-30.187-6.029-99.035,25.496-171.583
	c18.432-42.412,41.148-78.388,63.321-102.849C362.64,75.656,375.994,74.163,386.704,78.78z"/>
<path style="fill:#E0A33F;" d="M379.601,227.955c-1.285,2.957-4.159,4.712-7.189,4.712c-0.909,0-1.839-0.157-2.738-0.491
	l-66.079-28.714l-16.865-7.325c-3.971-1.724-5.789-6.343-4.065-10.313c1.724-3.971,6.343-5.789,10.313-4.065l16.854,7.335
	l65.839,28.609C379.549,219.471,381.304,224.026,379.601,227.955z"/>
<path style="fill:#F4B74A;" d="M379.601,227.955c-1.285,2.957-4.159,4.712-7.189,4.712c-0.909,0-1.839-0.157-2.738-0.491
	l-66.079-28.714c-3.971-1.724-5.789-6.343-4.065-10.313c1.724-3.96,6.332-5.789,10.303-4.054l65.839,28.609
	C379.549,219.471,381.304,224.026,379.601,227.955z"/>
<g>
	<path style="fill:#467EB7;" d="M143.151,271.671H32.392c-4.329,0-7.837-3.509-7.837-7.837s3.508-7.837,7.837-7.837h110.759
		c4.329,0,7.837,3.509,7.837,7.837S147.48,271.671,143.151,271.671z"/>
	<path style="fill:#467EB7;" d="M218.384,309.286H90.811c-4.329,0-7.837-3.509-7.837-7.837s3.508-7.837,7.837-7.837h127.573
		c4.329,0,7.837,3.509,7.837,7.837S222.713,309.286,218.384,309.286z"/>
	<path style="fill:#467EB7;" d="M64.686,309.286H32.392c-4.329,0-7.837-3.509-7.837-7.837s3.508-7.837,7.837-7.837h32.295
		c4.329,0,7.837,3.509,7.837,7.837S69.016,309.286,64.686,309.286z"/>
	<path style="fill:#467EB7;" d="M229.286,411.3c-1.154,0-2.335-0.129-3.543-0.413c-11.005-2.598-15.41-15.813-19.67-28.594
		c-2.1-6.302-4.453-13.359-6.991-16.809c-1.025,1.399-2.242,3.325-3.162,4.779c-5.429,8.589-13.635,21.569-29.78,21.569
		c-4.329,0-7.837-3.509-7.837-7.837s3.508-7.837,7.837-7.837c6.972,0,11.25-5.915,16.531-14.27
		c4.068-6.433,7.909-12.511,14.935-13.293c4.128-0.458,8.059,1.149,11.691,4.781c5.488,5.488,8.478,14.46,11.645,23.962
		c1.84,5.519,5.652,16.955,8.381,18.279c0.348-0.049,2.392-0.51,6.507-4.624c3.062-3.06,8.023-3.06,11.083,0s3.061,8.023,0,11.082
		C244.484,404.505,237.688,411.299,229.286,411.3z"/>
	<path style="fill:#467EB7;" d="M479.608,402.282h-84.637c-4.329,0-7.837-3.509-7.837-7.837s3.508-7.837,7.837-7.837h84.637
		c4.329,0,7.837,3.509,7.837,7.837S483.937,402.282,479.608,402.282z"/>
	<path style="fill:#467EB7;" d="M434.678,367.8h-39.706c-4.329,0-7.837-3.509-7.837-7.837s3.508-7.837,7.837-7.837h39.706
		c4.329,0,7.837,3.509,7.837,7.837S439.007,367.8,434.678,367.8z"/>
</g>
<g>
</g>
<g>
</g>
<g>
</g>
<g>
</g>
<g>
</g>
<g>
</g>
<g>
</g>
<g>
</g>
<g>
</g>
<g>
</g>
<g>
</g>
<g>
</g>
<g>
</g>
<g>
</g>
<g>
</g>
</svg>
