<?xml version="1.0" encoding="iso-8859-1"?>
<!-- Generator: Adobe Illustrator 19.0.0, SVG Export Plug-In . SVG Version: 6.00 Build 0)  -->
<svg version="1.1" id="Capa_1" xmlns="http://www.w3.org/2000/svg" xmlns:xlink="http://www.w3.org/1999/xlink" x="0px" y="0px"
	 viewBox="0 0 512 512" style="enable-background:new 0 0 512 512;" xml:space="preserve">
<g>
	<path style="fill:#467EB7;" d="M214.954,7.829c-3.014-3.014-7.902-3.014-10.915,0c-3.014,3.014-3.014,7.902,0,10.915l8.589,8.589
		h-5.92c-56.241,0-101.996,45.755-101.996,101.997c0,4.263,3.456,7.719,7.719,7.719c4.263,0,7.719-3.456,7.719-7.719
		c0-47.729,38.83-86.56,86.559-86.56h5.92l-8.589,8.589c-3.014,3.014-3.014,7.902,0,10.915c1.507,1.508,3.483,2.261,5.458,2.261
		c1.975,0,3.951-0.753,5.458-2.261l21.767-21.766c1.448-1.447,2.261-3.411,2.261-5.458s-0.813-4.011-2.261-5.458L214.954,7.829z"/>
	<path style="fill:#467EB7;" d="M511.74,345.815c-1.095-4.12-5.326-6.571-9.442-5.477l-11.74,3.119l2.97-5.12
		c13.67-23.567,17.344-51.047,10.346-77.377c-6.998-26.33-23.83-48.36-47.398-62.03c-3.686-2.138-8.41-0.884-10.55,2.804
		c-2.139,3.687-0.883,8.41,2.804,10.55c20.001,11.601,34.285,30.296,40.223,52.641c5.939,22.345,2.821,45.666-8.781,65.666
		l-2.971,5.121l-3.12-11.741c-1.095-4.12-5.326-6.572-9.442-5.477c-4.12,1.095-6.572,5.323-5.477,9.442l7.907,29.749
		c0.919,3.456,4.04,5.739,7.455,5.739c0.657,0,1.324-0.084,1.987-0.26l29.749-7.906C510.382,354.162,512.835,349.935,511.74,345.815
		z"/>
	<path style="fill:#467EB7;" d="M217.427,447.67c-20.023,11.56-43.35,14.633-65.683,8.647c-22.334-5.983-40.999-20.307-52.56-40.33
		l-2.96-5.127l11.734,3.144c4.114,1.1,8.35-1.34,9.454-5.459c1.103-4.118-1.341-8.35-5.459-9.454l-29.733-7.967
		c-1.976-0.529-4.084-0.252-5.857,0.772c-1.773,1.024-3.066,2.71-3.597,4.687l-7.967,29.733c-1.103,4.118,1.341,8.35,5.459,9.454
		c0.669,0.179,1.341,0.264,2.003,0.264c3.408,0,6.527-2.274,7.451-5.723l3.144-11.733l2.96,5.126
		c13.622,23.594,35.617,40.471,61.933,47.523c8.788,2.355,17.705,3.52,26.565,3.52c17.674,0,35.117-4.635,50.833-13.709
		c3.692-2.131,4.956-6.852,2.825-10.544C225.839,446.804,221.119,445.538,217.427,447.67z"/>
</g>
<path style="fill:#FFD488;" d="M446.517,405.441c0,55.78-45.211,100.991-100.991,100.991c-4.055,0-8.048-0.237-11.969-0.71
	c-12.751-1.503-24.782-5.383-35.619-11.187c-9.921-5.31-18.854-12.226-26.429-20.408c-15.046-16.189-24.823-37.317-26.645-60.689
	c-0.216-2.635-0.319-5.3-0.319-7.996c0-55.77,45.211-100.981,100.981-100.981c2.696,0,5.362,0.103,7.997,0.319
	c23.372,1.822,44.501,11.599,60.689,26.645c8.182,7.575,15.098,16.508,20.408,26.429c5.804,10.837,9.684,22.868,11.187,35.619
	C446.28,397.393,446.517,401.396,446.517,405.441z"/>
<g>
	<path style="fill:#F9C662;" d="M414.212,331.424L271.509,474.127c-15.046-16.189-24.823-37.317-26.645-60.689l108.658-108.658
		C376.895,306.601,398.023,316.378,414.212,331.424z"/>
	<path style="fill:#F9C662;" d="M445.807,393.473l-112.25,112.25c-12.751-1.503-24.782-5.383-35.619-11.187L434.62,357.854
		C440.424,368.69,444.304,380.721,445.807,393.473z"/>
</g>
<path style="fill:#FFD488;" d="M446.518,125.142c0,55.78-45.211,100.991-100.991,100.991c-4.055,0-8.048-0.237-11.969-0.71
	c-12.751-1.503-24.782-5.382-35.619-11.187c-9.921-5.31-18.854-12.226-26.429-20.408c-15.046-16.189-24.823-37.317-26.645-60.689
	c-0.216-2.635-0.319-5.3-0.319-7.997c0-55.77,45.211-100.981,100.981-100.981c2.696,0,5.362,0.103,7.997,0.319
	c23.372,1.822,44.501,11.599,60.689,26.645c8.182,7.575,15.098,16.508,20.408,26.429c5.804,10.837,9.684,22.868,11.187,35.619
	C446.281,117.094,446.518,121.097,446.518,125.142z"/>
<g>
	<path style="fill:#F9C662;" d="M414.213,51.125L271.51,193.827c-15.046-16.189-24.823-37.317-26.645-60.689L353.524,24.48
		C376.896,26.302,398.024,36.079,414.213,51.125z"/>
	<path style="fill:#F9C662;" d="M445.808,113.173l-112.25,112.25c-12.751-1.503-24.782-5.382-35.619-11.187L434.621,77.554
		C440.425,88.391,444.305,100.421,445.808,113.173z"/>
</g>
<path style="fill:#FFD488;" d="M201.971,265.291c0,55.78-45.211,100.991-100.991,100.991c-4.055,0-8.048-0.237-11.969-0.71
	c-12.751-1.503-24.782-5.383-35.619-11.187c-9.921-5.31-18.854-12.226-26.429-20.408c-15.046-16.189-24.823-37.317-26.645-60.689
	C0.103,270.653,0,267.987,0,265.291c0-55.77,45.211-100.981,100.981-100.981c2.696,0,5.362,0.103,7.997,0.319
	c23.372,1.822,44.501,11.599,60.689,26.645c8.182,7.575,15.098,16.508,20.408,26.429c5.804,10.837,9.684,22.868,11.187,35.619
	C201.735,257.243,201.971,261.246,201.971,265.291z"/>
<g>
	<path style="fill:#F9C662;" d="M169.666,191.274L26.964,333.977c-15.046-16.189-24.823-37.317-26.645-60.689l108.658-108.658
		C132.349,166.45,153.478,176.227,169.666,191.274z"/>
	<path style="fill:#F9C662;" d="M201.261,253.322l-112.25,112.25c-12.751-1.503-24.782-5.383-35.619-11.187l136.682-136.682
		C195.879,228.54,199.759,240.571,201.261,253.322z"/>
</g>
<g>
	<path style="fill:#E0A33F;" d="M351.882,323.551c-20.682,0-37.508,16.826-37.508,37.508v36.666h-13.671
		c-4.263,0-7.719,3.456-7.719,7.719c0,4.263,3.456,7.719,7.719,7.719h13.671v43.709h-13.671c-4.263,0-7.719,3.456-7.719,7.719
		c0,4.263,3.456,7.719,7.719,7.719h73.305c4.263,0,7.719-3.456,7.719-7.719c0-4.263-3.456-7.719-7.719-7.719h-44.196v-43.709h27.646
		c4.263,0,7.719-3.456,7.719-7.719c0-4.263-3.456-7.719-7.719-7.719h-27.646v-36.666c0-12.17,9.9-22.07,22.07-22.07
		s22.07,9.9,22.07,22.07v17.906c0,4.263,3.456,7.719,7.719,7.719c4.263,0,7.719-3.456,7.719-7.719v-17.906
		C389.39,340.377,372.564,323.551,351.882,323.551z"/>
	<path style="fill:#E0A33F;" d="M386.856,167.018c-3.293-2.707-8.158-2.23-10.864,1.063c-8.482,10.322-19.518,16.006-31.073,16.006
		c-19.21,0-35.664-15.541-42.306-37.431h44.874c4.263,0,7.719-3.456,7.719-7.719s-3.456-7.719-7.719-7.719h-47.782
		c-0.158-1.997-0.241-4.022-0.241-6.072c0-2.05,0.082-4.075,0.241-6.072h47.782c4.263,0,7.719-3.456,7.719-7.719
		c0-4.263-3.456-7.719-7.719-7.719h-44.874c6.642-21.89,23.095-37.432,42.306-37.432c11.556,0,22.591,5.684,31.073,16.006
		c2.706,3.293,7.569,3.77,10.864,1.063c3.293-2.707,3.77-7.57,1.063-10.864c-11.469-13.956-26.741-21.643-43-21.643
		c-27.454,0-50.713,22.313-58.285,52.87h-6.998c-4.263,0-7.719,3.456-7.719,7.719c0,4.263,3.456,7.719,7.719,7.719h4.613
		c-0.134,2.005-0.22,4.026-0.22,6.072c0,2.046,0.086,4.067,0.22,6.072h-4.613c-4.263,0-7.719,3.456-7.719,7.719
		s3.456,7.719,7.719,7.719h6.998c7.573,30.556,30.831,52.869,58.285,52.869c16.261,0,31.532-7.687,43-21.643
		C390.626,174.588,390.149,169.725,386.856,167.018z"/>
	<path style="fill:#E0A33F;" d="M119.607,223.81c4.505,3.753,6.985,8.622,6.985,13.71c0,4.263,3.456,7.719,7.719,7.719
		c4.263,0,7.719-3.456,7.719-7.719c0-17.29-14.374-31.723-33.33-34.855v-4.029c0-4.263-3.456-7.719-7.719-7.719
		s-7.719,3.456-7.719,7.719v4.029c-18.956,3.133-33.33,17.566-33.33,34.855s14.374,31.723,33.33,34.855v39.822
		c-4.103-1.02-7.838-2.86-10.908-5.417c-4.505-3.753-6.985-8.622-6.985-13.71c0-4.263-3.456-7.719-7.719-7.719
		s-7.719,3.456-7.719,7.719c0,17.29,14.374,31.723,33.33,34.855v4.029c0,4.263,3.456,7.719,7.719,7.719s7.719-3.456,7.719-7.719
		v-4.029c18.956-3.133,33.33-17.566,33.33-34.855c0-17.29-14.374-31.723-33.33-34.855v-39.822
		C112.802,219.412,116.538,221.252,119.607,223.81z M82.354,251.23c-4.505-3.753-6.985-8.622-6.985-13.71s2.48-9.957,6.985-13.71
		c3.069-2.557,6.805-4.398,10.908-5.417v38.255C89.159,255.627,85.424,253.788,82.354,251.23z M119.607,279.36
		c4.505,3.753,6.985,8.622,6.985,13.71c0,5.088-2.48,9.957-6.985,13.71c-3.069,2.557-6.805,4.398-10.908,5.417v-38.255
		C112.802,274.963,116.538,276.802,119.607,279.36z"/>
</g>
<g>
</g>
<g>
</g>
<g>
</g>
<g>
</g>
<g>
</g>
<g>
</g>
<g>
</g>
<g>
</g>
<g>
</g>
<g>
</g>
<g>
</g>
<g>
</g>
<g>
</g>
<g>
</g>
<g>
</g>
</svg>
