<?xml version="1.0" encoding="iso-8859-1"?>
<!-- Generator: Adobe Illustrator 19.0.0, SVG Export Plug-In . SVG Version: 6.00 Build 0)  -->
<svg version="1.1" id="Layer_1" xmlns="http://www.w3.org/2000/svg" xmlns:xlink="http://www.w3.org/1999/xlink" x="0px" y="0px"
	 viewBox="0 0 512 512" style="enable-background:new 0 0 512 512;" xml:space="preserve">
<path style="fill:#EFE7E4;" d="M504.488,117.742H285.89c-4.15,0-7.512,3.363-7.512,7.512v31.175c0,4.148,3.362,7.512,7.512,7.512
	h20.413v21.904H205.698V163.94h20.413c4.15,0,7.512-3.363,7.512-7.512v-31.175c0-4.148-3.362-7.512-7.512-7.512H7.512
	c-4.149,0-7.512,3.363-7.512,7.512v335.991c0,4.148,3.362,7.512,7.512,7.512h496.977c4.15,0,7.512-3.363,7.512-7.512V125.254
	C512,121.105,508.638,117.742,504.488,117.742z"/>
<path style="fill:#D8D1D0;" d="M504.488,117.742h-20.03v351.014h20.03c4.15,0,7.512-3.363,7.512-7.512V125.254
	C512,121.105,508.638,117.742,504.488,117.742z"/>
<path style="fill:#546F7A;" d="M223.54,214.64H54.429c-4.149,0-7.512,3.363-7.512,7.512v184.767c0,4.148,3.362,7.512,7.512,7.512
	H223.54c4.149,0,7.512-3.363,7.512-7.512V222.152C231.051,218.003,227.689,214.64,223.54,214.64z"/>
<path style="fill:#F7CB4F;" d="M285.89,43.244h-59.78c-4.149,0-7.512,3.363-7.512,7.512v121.234c0,4.148,3.362,7.512,7.512,7.512
	h59.78c4.149,0,7.512-3.363,7.512-7.512V50.755C293.402,46.607,290.04,43.244,285.89,43.244z"/>
<path style="fill:#F4B008;" d="M285.89,43.244h-20.031v136.257h20.031c4.149,0,7.512-3.363,7.512-7.512V50.755
	C293.402,46.607,290.04,43.244,285.89,43.244z"/>
<path style="fill:#68B9D8;" d="M138.71,319.888c-0.068-0.001-0.137-0.001-0.205,0c-37.483,0.514-69.149,31.291-69.149,67.208v19.822
	c0,4.148,3.362,7.512,7.512,7.512h123.481c4.15,0,7.512-3.363,7.512-7.512v-19.822C207.86,351.179,176.194,320.402,138.71,319.888z"
	/>
<path style="fill:#2294F4;" d="M138.71,319.888c-0.068-0.001-0.137-0.001-0.205,0c-4.7,0.064-9.309,0.605-13.774,1.572
	c31.153,6.742,55.376,34.223,55.376,65.636v19.822c0,4.148-3.362,7.512-7.512,7.512h27.753c4.15,0,7.512-3.363,7.512-7.512v-19.822
	C207.86,351.179,176.194,320.402,138.71,319.888z"/>
<g>
	<path style="fill:#546F7A;" d="M462.03,256.957H272.235c-4.15,0-7.512-3.363-7.512-7.512c0-4.148,3.362-7.512,7.512-7.512H462.03
		c4.148,0,7.512,3.363,7.512,7.512S466.178,256.957,462.03,256.957z"/>
	<path style="fill:#546F7A;" d="M403.094,292.761H272.235c-4.15,0-7.512-3.363-7.512-7.512c0-4.148,3.362-7.512,7.512-7.512h130.859
		c4.15,0,7.512,3.363,7.512,7.512C410.605,289.398,407.242,292.761,403.094,292.761z"/>
	<path style="fill:#546F7A;" d="M462.03,348.85H272.235c-4.15,0-7.512-3.363-7.512-7.512s3.362-7.512,7.512-7.512H462.03
		c4.148,0,7.512,3.363,7.512,7.512C469.542,345.487,466.178,348.85,462.03,348.85z"/>
	<path style="fill:#546F7A;" d="M403.094,384.654H272.235c-4.15,0-7.512-3.363-7.512-7.512c0-4.148,3.362-7.512,7.512-7.512h130.859
		c4.15,0,7.512,3.363,7.512,7.512C410.605,381.29,407.242,384.654,403.094,384.654z"/>
</g>
<path style="fill:#F2464F;" d="M161.132,378.472l-8.218-28.574c-0.926-3.218-3.87-5.436-7.219-5.436h-14.173
	c-3.349,0-6.293,2.216-7.219,5.436l-8.218,28.574c-0.788,2.741,0.044,5.692,2.148,7.617l15.304,14.008
	c1.435,1.314,3.253,1.971,5.071,1.971c1.819,0,3.637-0.657,5.072-1.97l15.305-14.008
	C161.088,384.164,161.92,381.213,161.132,378.472z"/>
<path style="fill:#D3333C;" d="M116.509,331.973l7.224,20.506h29.749l7.224-20.506c0.346-0.981,1.626-4.079,2.708-7.181
	c-2.534-0.998-5.129-1.868-7.788-2.572c-0.025-0.004-0.056,0.003-0.08-0.003c-1.342-0.356-2.693-0.67-4.049-0.945
	c-0.253-0.051-0.508-0.096-0.761-0.145c-0.894-0.171-1.792-0.324-2.69-0.46c-0.533-0.08-1.068-0.156-1.604-0.224
	c-0.392-0.05-0.784-0.101-1.177-0.144c-0.905-0.098-1.814-0.18-2.727-0.243c-0.258-0.018-0.517-0.032-0.775-0.047
	c-1.014-0.059-2.03-0.105-3.053-0.119c-0.068-0.001-0.137-0.001-0.205,0c-8.709,0.119-17.095,1.89-24.852,4.962
	C114.911,328.09,116.201,331.098,116.509,331.973z"/>
<path style="fill:#AF273B;" d="M155.627,322.219c-0.025-0.004-0.056,0.003-0.08-0.003c-1.342-0.356-2.693-0.67-4.049-0.945
	c-0.252-0.051-0.508-0.096-0.761-0.145c-0.362-0.069-0.726-0.123-1.089-0.186c-3.72,10.499-11.093,31.267-11.093,31.267l0.078,0.271
	h14.849l7.224-20.506c0.346-0.981,1.626-4.079,2.708-7.181C160.881,323.795,158.286,322.923,155.627,322.219z"/>
<path style="fill:#FFC89F;" d="M138.608,235.535c-20.412,0-37.018,16.606-37.018,37.018v25.391
	c0,20.412,16.606,37.018,37.018,37.018s37.018-16.607,37.018-37.018v-25.391C175.626,252.142,159.019,235.535,138.608,235.535z"/>
<path style="fill:#F7B081;" d="M138.608,235.535c-4.815,0-9.413,0.933-13.636,2.614c13.68,5.443,23.382,18.807,23.382,34.404v25.391
	c0,15.597-9.701,28.962-23.382,34.404c4.223,1.68,8.822,2.614,13.636,2.614c20.412,0,37.018-16.607,37.018-37.018v-25.391
	C175.626,252.142,159.019,235.535,138.608,235.535z"/>
<path d="M175.626,285.245v-12.692c0-20.412-16.606-37.018-37.018-37.018s-37.018,16.606-37.018,37.018v12.695h7.512
	c25.79,0,35.185-17.414,35.185-17.414s6.567,17.329,23.827,17.41h7.512V285.245z"/>
<path style="fill:#D3333C;" d="M153.578,352.207l-0.096,0.271h-14.849l7.476,25.994c0.788,2.741-0.044,5.692-2.148,7.618
	l-12.864,11.774l2.44,2.233c1.435,1.314,3.253,1.971,5.071,1.971c1.819,0,3.637-0.657,5.072-1.97l15.305-14.008
	c2.104-1.926,2.937-4.877,2.148-7.618L153.578,352.207z"/>
<g>
</g>
<g>
</g>
<g>
</g>
<g>
</g>
<g>
</g>
<g>
</g>
<g>
</g>
<g>
</g>
<g>
</g>
<g>
</g>
<g>
</g>
<g>
</g>
<g>
</g>
<g>
</g>
<g>
</g>
</svg>
