<?xml version="1.0" encoding="iso-8859-1"?>
<!-- Generator: Adobe Illustrator 19.0.0, SVG Export Plug-In . SVG Version: 6.00 Build 0)  -->
<svg version="1.1" id="Layer_1" xmlns="http://www.w3.org/2000/svg" xmlns:xlink="http://www.w3.org/1999/xlink" x="0px" y="0px"
	 viewBox="0 0 512 512" style="enable-background:new 0 0 512 512;" xml:space="preserve">
<path style="fill:#F7CB4F;" d="M393.281,346.558l-36.18-36.18c-1.529-1.53-3.644-2.332-5.803-2.181
	c-2.158,0.143-4.15,1.211-5.464,2.928c-4.993,6.528-10.455,12.769-16.235,18.548c-5.777,5.778-12.018,11.239-18.547,16.233
	c-1.719,1.314-2.786,3.306-2.929,5.464c-0.144,2.158,0.651,4.273,2.181,5.803l36.18,36.18c1.466,1.466,3.386,2.198,5.306,2.198
	c1.92,0,3.841-0.732,5.307-2.198l36.183-36.183c1.407-1.407,2.197-3.316,2.197-5.306
	C395.478,349.873,394.688,347.964,393.281,346.558z"/>
<path style="fill:#F4B008;" d="M369.01,381.439l-45.753-45.753c-3.923,3.568-7.994,6.999-12.204,10.218
	c-1.719,1.314-2.786,3.306-2.929,5.464c-0.144,2.158,0.651,4.273,2.181,5.803l36.18,36.18c1.466,1.466,3.386,2.198,5.306,2.198
	c1.92,0,3.841-0.732,5.307-2.198L369.01,381.439z"/>
<path style="fill:#F7CB4F;" d="M340.262,58.384C302.613,20.735,252.556,0,199.313,0C146.067,0,96.011,20.735,58.362,58.384
	c-77.721,77.721-77.72,204.181,0,281.9c37.649,37.65,87.706,58.384,140.951,58.384s103.301-20.735,140.951-58.384
	C417.982,262.564,417.982,136.104,340.262,58.384z"/>
<path style="fill:#F4B008;" d="M340.262,58.384C302.613,20.735,252.556,0,199.313,0c-4.612,0-9.198,0.166-13.757,0.475
	c48.065,3.255,92.806,23.521,127.194,57.908c77.72,77.721,77.72,204.181,0,281.9c-34.388,34.388-79.129,54.655-127.194,57.909
	c4.558,0.309,9.144,0.475,13.757,0.475c53.244,0,103.301-20.735,140.951-58.384C417.982,262.564,417.982,136.104,340.262,58.384z"/>
<path style="fill:#EFE7E4;" d="M199.313,41.748c-86.418,0-156.722,70.305-156.722,156.722s70.305,156.722,156.722,156.722
	s156.722-70.305,156.722-156.722S285.729,41.748,199.313,41.748z"/>
<path style="fill:#D8D1D0;" d="M199.313,41.748c-4.737,0-9.423,0.223-14.055,0.637c79.856,7.132,142.667,74.405,142.667,156.085
	s-62.812,148.953-142.667,156.085c4.632,0.413,9.317,0.637,14.055,0.637c86.417,0,156.722-70.305,156.722-156.722
	C356.035,112.053,285.729,41.748,199.313,41.748z"/>
<path style="fill:#68B9D8;" d="M303.677,309.451c-6.611-21.216-20.636-40.541-39.489-54.417
	c-18.916-13.922-41.92-21.76-64.774-22.073c-0.068-0.001-0.137-0.001-0.205,0c-22.854,0.313-45.858,8.152-64.775,22.073
	c-18.853,13.876-32.877,33.201-39.489,54.417c-0.891,2.858,0.002,5.972,2.273,7.923c28.378,24.388,64.636,37.819,102.092,37.819
	s73.714-13.43,102.092-37.819C303.674,315.423,304.568,312.31,303.677,309.451z"/>
<path style="fill:#3695B2;" d="M303.677,309.451c-6.611-21.216-20.636-40.541-39.489-54.417
	c-18.402-13.543-40.671-21.308-62.909-22.009c39.599,15.078,71.786,47.361,84.226,87.184c0.859,2.651,1.569,5.216,2.154,7.71
	c4.754-3.246,9.344-6.762,13.746-10.544C303.674,315.423,304.568,312.31,303.677,309.451z"/>
<path style="fill:#F2464F;" d="M231.732,324.856l-13.481-60.758c-0.784-3.536-3.817-6.042-7.312-6.042h-23.253
	c-3.496,0-6.527,2.505-7.312,6.042l-13.481,60.758c-0.607,2.736,0.251,5.6,2.246,7.496l21.843,20.756
	c1.342,1.275,3.084,2.001,4.903,2.041c1.141,0.026,2.281,0.045,3.427,0.045c1.146,0,2.286-0.019,3.427-0.045
	c1.819-0.041,3.562-0.766,4.903-2.041l21.843-20.756C231.481,330.455,232.339,327.591,231.732,324.856z"/>
<path style="fill:#353535;" d="M498.44,433.384l-95.992-95.993c-1.408-1.408-3.317-2.198-5.306-2.198
	c-1.99,0-3.898,0.79-5.306,2.198l-54.516,54.516c-1.407,1.407-2.197,3.316-2.197,5.306s0.79,3.899,2.197,5.306l95.993,95.993
	c8.698,8.698,20.263,13.488,32.564,13.488c12.301,0,23.865-4.79,32.563-13.488c8.698-8.698,13.488-20.263,13.488-32.563
	C511.928,453.647,507.138,442.082,498.44,433.384z"/>
<path style="fill:#262626;" d="M510.311,478.073c-3.507,2.433-7.426,5.227-11.847,8.461c-14.736,8.49-33.884,6.443-46.484-6.156
	L350.395,378.831l-13.076,13.076c-1.407,1.407-2.197,3.316-2.197,5.306c0,1.99,0.79,3.899,2.197,5.306l95.993,95.993
	C442.01,507.21,453.575,512,465.876,512c12.301,0,23.865-4.79,32.563-13.488C504.201,492.751,508.235,485.73,510.311,478.073z"/>
<path style="fill:#AF273B;" d="M210.186,241.22l-14.255,27.913h3.381h11.626l13.002-25.262
	C219.443,242.679,214.847,241.794,210.186,241.22z"/>
<path style="fill:#D3333C;" d="M199.209,232.961c-12.056,0.165-24.146,2.443-35.664,6.585l15.7,29.587h40.131l15.456-29.676
	c-11.443-4.086-23.449-6.333-35.419-6.497C199.347,232.96,199.277,232.96,199.209,232.961z"/>
<path style="fill:#AF273B;" d="M213.34,234.089l-16.598,35.045h22.636l15.456-29.676
	C227.834,236.959,220.624,235.156,213.34,234.089z"/>
<path style="fill:#FFC89F;" d="M199.313,94.58c-30.829,0-55.908,25.081-55.908,55.908v41.654c0,30.829,25.081,55.908,55.908,55.908
	s55.908-25.081,55.908-55.908v-41.654C255.221,119.661,230.14,94.58,199.313,94.58z"/>
<path style="fill:#F7B081;" d="M199.313,94.58c-4.746,0-9.353,0.599-13.757,1.717c24.197,6.146,42.152,28.109,42.152,54.192v41.654
	c0,26.082-17.954,48.046-42.152,54.192c4.403,1.119,9.01,1.717,13.757,1.717c30.828,0,55.908-25.081,55.908-55.908v-41.654
	C255.221,119.661,230.14,94.58,199.313,94.58z"/>
<path d="M255.221,171.277v-20.789c0-30.829-25.081-55.908-55.908-55.908c-30.829,0-55.908,25.081-55.908,55.908v20.795h7.526
	c42.289,0,57.694-28.555,57.694-28.555s10.769,28.416,39.07,28.549H255.221z"/>
<path style="fill:#D3333C;" d="M219.368,269.133H196.66l12.752,57.47l-23.161,22.008l4.73,4.495
	c1.342,1.275,3.084,2.001,4.903,2.041c1.141,0.026,2.281,0.045,3.427,0.045c1.146,0,2.286-0.019,3.427-0.045
	c1.819-0.04,3.562-0.766,4.903-2.041l21.843-20.756c1.995-1.896,2.853-4.759,2.246-7.496L219.368,269.133z"/>
<g>
</g>
<g>
</g>
<g>
</g>
<g>
</g>
<g>
</g>
<g>
</g>
<g>
</g>
<g>
</g>
<g>
</g>
<g>
</g>
<g>
</g>
<g>
</g>
<g>
</g>
<g>
</g>
<g>
</g>
</svg>
